<svg width="26" height="26" viewBox="0 0 26 26" fill="none" xmlns="http://www.w3.org/2000/svg">
<path d="M9.75157 12.4588L11.9193 14.6249L16.7943 9.74993M21.6693 12.9999C21.6693 18.3186 15.8681 22.1861 13.7588 23.4162C13.5183 23.5559 13.3981 23.6258 13.2291 23.6632C13.0974 23.6908 12.9057 23.6908 12.7757 23.6632C12.6051 23.6258 12.4864 23.5559 12.2459 23.4162C10.1351 22.1861 4.33545 18.3186 4.33545 12.9999V7.81943C4.33545 6.9533 4.33545 6.52105 4.47682 6.1473C4.60195 5.81905 4.80507 5.52655 5.06995 5.29255C5.36895 5.0293 5.77357 4.87818 6.58445 4.5743L12.3938 2.39518C12.6181 2.31068 12.7318 2.26843 12.8472 2.25218C12.9496 2.23755 13.0536 2.23755 13.1576 2.25218C13.2729 2.26843 13.3851 2.31068 13.6109 2.39518L19.4187 4.5743C20.2296 4.87818 20.6358 5.0293 20.9348 5.29255C21.1981 5.52655 21.4012 5.81905 21.5263 6.1473C21.6693 6.52105 21.6693 6.9533 21.6693 7.81943V12.9999Z" stroke="#1FDA8C" stroke-width="1.8525" stroke-linecap="round" stroke-linejoin="round" stroke-dasharray="71.78 71.78"/>
</svg>
