<svg width="26" height="26" viewBox="0 0 26 26" fill="none" xmlns="http://www.w3.org/2000/svg">
<path d="M14.8899 2.85523L23.0457 8.15598C23.3334 8.34285 23.478 8.4371 23.582 8.56223C23.6746 8.67273 23.7445 8.79948 23.7867 8.9376C23.8339 9.0936 23.8339 9.26585 23.8339 9.60873V17.5517C23.8339 19.3717 23.8339 20.2817 23.4796 20.9772C23.1692 21.5882 22.672 22.0855 22.0594 22.3975C21.3639 22.7517 20.4539 22.7517 18.6339 22.7517H7.36773C5.54772 22.7517 4.63772 22.7517 3.94222 22.3975C3.33122 22.0855 2.83397 21.5882 2.52197 20.9772C2.16772 20.2817 2.16772 19.3717 2.16772 17.5517V9.60873C2.16772 9.26585 2.16772 9.0936 2.21485 8.9376C2.25872 8.79948 2.32697 8.67273 2.4196 8.56223C2.5236 8.4371 2.66822 8.34285 2.95585 8.15598L11.1117 2.85523M14.8899 2.85523C14.2057 2.40998 13.8645 2.18735 13.4956 2.10123C13.1706 2.02485 12.831 2.02485 12.506 2.10123C12.1371 2.18735 11.7959 2.40998 11.1117 2.85523M14.8899 2.85523L22.7159 7.94148C23.0896 8.1836 23.2749 8.30548 23.3399 8.45823C23.3967 8.5931 23.3967 8.74423 23.3399 8.8791C23.2749 9.03185 23.0896 9.15373 22.7159 9.39585L14.8899 14.4821C14.2057 14.9274 13.8645 15.1484 13.4956 15.2361C13.1706 15.3125 12.831 15.3125 12.506 15.2361C12.1371 15.1484 11.7959 14.9274 11.1117 14.4821L3.28572 9.39585C2.9136 9.15373 2.72672 9.03185 2.66172 8.8791C2.60647 8.74423 2.60647 8.5931 2.66172 8.45823C2.72672 8.30548 2.9136 8.1836 3.28572 7.94148L11.1117 2.85523" stroke="#1FDA8C" stroke-width="1.8525" stroke-linecap="round" stroke-linejoin="round" stroke-dasharray="117.98 117.98"/>
</svg>
