<svg width="48" height="48" viewBox="0 0 48 48" fill="none" xmlns="http://www.w3.org/2000/svg">
<g filter="url(#filter0_d_471_1566)">
<g clip-path="url(#clip0_471_1566)">
<rect x="1" width="46" height="46" rx="6" fill="white"/>
<path d="M18.7957 15.9996C18.7957 13.7897 20.5172 11.9993 22.6421 11.9993C24.7661 11.9993 26.4877 13.7897 26.4877 15.9996H31.296C31.8268 15.9996 32.2569 16.4469 32.2569 16.9989V21.1701C32.2569 21.4946 32.1055 21.7989 31.8508 21.9861C31.596 22.1743 31.2692 22.2213 30.9757 22.1129C30.7763 22.0399 30.5603 21.9996 30.3341 21.9996C29.2717 21.9996 28.4114 22.8943 28.4114 23.9993C28.4114 25.1042 29.2717 25.9989 30.3341 25.9989C30.5603 25.9989 30.7763 25.9586 30.9757 25.8857C31.2692 25.7772 31.596 25.8252 31.8508 26.0124C32.1055 26.1996 32.2569 26.5039 32.2569 26.8284V30.9996C32.2569 31.5516 31.8268 31.9989 31.296 31.9989H15.9111C15.3803 31.9989 14.9492 31.5516 14.9492 30.9996V16.9989C14.9492 16.4469 15.3803 15.9996 15.9111 15.9996H18.7957ZM22.6421 13.9989C21.5797 13.9989 20.7184 14.8946 20.7184 15.9996C20.7184 16.2348 20.7572 16.4585 20.8283 16.6658C20.9317 16.9721 20.8864 17.3119 20.7064 17.5769C20.5264 17.8418 20.2338 17.9993 19.9209 17.9993H16.8729V29.9993H30.3341V27.9996C28.2101 27.9996 26.4877 26.2082 26.4877 23.9993C26.4877 21.7903 28.2101 19.9989 30.3341 19.9989V17.9993H25.3624C25.0504 17.9993 24.7578 17.8418 24.5769 17.5769C24.3969 17.3119 24.3517 16.9721 24.456 16.6658C24.5261 16.4585 24.5649 16.2348 24.5649 15.9996C24.5649 14.8946 23.7037 13.9989 22.6421 13.9989Z" fill="#504DFF"/>
<mask id="path-3-inside-1_471_1566" fill="white">
<path d="M1 6C1 2.68629 3.68629 0 7 0H41C44.3137 0 47 2.68629 47 6V40C47 43.3137 44.3137 46 41 46H7C3.68629 46 1 43.3137 1 40V6Z"/>
</mask>
<path d="M7 0V1H41V0V-1H7V0ZM47 6H46V40H47H48V6H47ZM41 46V45H7V46V47H41V46ZM1 40H2V6H1H0V40H1ZM7 46V45C4.23858 45 2 42.7614 2 40H1H0C0 43.866 3.13401 47 7 47V46ZM47 40H46C46 42.7614 43.7614 45 41 45V46V47C44.866 47 48 43.866 48 40H47ZM41 0V1C43.7614 1 46 3.23858 46 6H47H48C48 2.13401 44.866 -1 41 -1V0ZM7 0V-1C3.13401 -1 0 2.13401 0 6H1H2C2 3.23858 4.23858 1 7 1V0Z" fill="#F5F5F5" mask="url(#path-3-inside-1_471_1566)"/>
</g>
</g>
<defs>
<filter id="filter0_d_471_1566" x="0" y="0" width="48" height="48" filterUnits="userSpaceOnUse" color-interpolation-filters="sRGB">
<feFlood flood-opacity="0" result="BackgroundImageFix"/>
<feColorMatrix in="SourceAlpha" type="matrix" values="0 0 0 0 0 0 0 0 0 0 0 0 0 0 0 0 0 0 127 0" result="hardAlpha"/>
<feOffset dy="1"/>
<feGaussianBlur stdDeviation="0.5"/>
<feComposite in2="hardAlpha" operator="out"/>
<feColorMatrix type="matrix" values="0 0 0 0 0 0 0 0 0 0 0 0 0 0 0 0 0 0 0.06 0"/>
<feBlend mode="normal" in2="BackgroundImageFix" result="effect1_dropShadow_471_1566"/>
<feBlend mode="normal" in="SourceGraphic" in2="effect1_dropShadow_471_1566" result="shape"/>
</filter>
<clipPath id="clip0_471_1566">
<rect x="1" width="46" height="46" rx="6" fill="white"/>
</clipPath>
</defs>
</svg>
