<svg width="20" height="20" viewBox="0 0 20 20" fill="none" xmlns="http://www.w3.org/2000/svg">
<path d="M18.3845 5.73184L14.2681 1.61622C14.152 1.50011 14.0142 1.40801 13.8625 1.34518C13.7108 1.28234 13.5483 1.25 13.3841 1.25C13.2199 1.25 13.0573 1.28234 12.9057 1.34518C12.754 1.40801 12.6162 1.50011 12.5001 1.61622L1.61573 12.4998C1.49963 12.6159 1.40753 12.7537 1.34469 12.9054C1.28185 13.0571 1.24951 13.2196 1.24951 13.3838C1.24951 13.548 1.28185 13.7105 1.34469 13.8622C1.40753 14.0139 1.49963 14.1517 1.61573 14.2678L5.73214 18.3834C5.84821 18.4995 5.98602 18.5916 6.1377 18.6544C6.28937 18.7173 6.45194 18.7496 6.61612 18.7496C6.7803 18.7496 6.94286 18.7173 7.09454 18.6544C7.24622 18.5916 7.38403 18.4995 7.5001 18.3834L18.3845 7.49981C18.5006 7.38373 18.5927 7.24592 18.6555 7.09425C18.7184 6.94257 18.7507 6.78 18.7507 6.61583C18.7507 6.45165 18.7184 6.28908 18.6555 6.13741C18.5927 5.98573 18.5006 5.84792 18.3845 5.73184ZM6.61573 17.4998L2.5001 13.3834L5.0001 10.8834L7.05792 12.942C7.11599 13.0001 7.18492 13.0461 7.26079 13.0776C7.33666 13.109 7.41798 13.1252 7.5001 13.1252C7.58223 13.1252 7.66354 13.109 7.73941 13.0776C7.81529 13.0461 7.88422 13.0001 7.94229 12.942C8.00036 12.8839 8.04642 12.815 8.07785 12.7391C8.10928 12.6632 8.12545 12.5819 8.12545 12.4998C8.12545 12.4177 8.10928 12.3364 8.07785 12.2605C8.04642 12.1846 8.00036 12.1157 7.94229 12.0576L5.8837 9.99981L7.5001 8.3834L9.55792 10.442C9.67519 10.5593 9.83425 10.6252 10.0001 10.6252C10.166 10.6252 10.325 10.5593 10.4423 10.442C10.5596 10.3247 10.6255 10.1657 10.6255 9.99981C10.6255 9.83396 10.5596 9.6749 10.4423 9.55762L8.3837 7.49981L10.0001 5.8834L12.0579 7.942C12.116 8.00007 12.1849 8.04613 12.2608 8.07756C12.3367 8.10898 12.418 8.12516 12.5001 8.12516C12.5822 8.12516 12.6635 8.10898 12.7394 8.07756C12.8153 8.04613 12.8842 8.00007 12.9423 7.942C13.0004 7.88393 13.0464 7.81499 13.0778 7.73912C13.1093 7.66325 13.1255 7.58193 13.1255 7.49981C13.1255 7.41769 13.1093 7.33637 13.0778 7.2605C13.0464 7.18463 13.0004 7.11569 12.9423 7.05762L10.8837 4.99981L13.3837 2.49981L17.5001 6.61622L6.61573 17.4998Z" fill="#504DFF"/>
</svg>
