<svg width="20" height="20" viewBox="0 0 20 20" fill="none" xmlns="http://www.w3.org/2000/svg">
<path d="M8.93279 12.058L16.4328 4.55797C16.4909 4.4999 16.5598 4.45384 16.6357 4.42241C16.7115 4.39099 16.7929 4.37481 16.875 4.37481C16.9571 4.37481 17.0384 4.39099 17.1143 4.42241C17.1902 4.45384 17.2591 4.4999 17.3172 4.55797C17.3752 4.61604 17.4213 4.68498 17.4527 4.76085C17.4842 4.83672 17.5003 4.91804 17.5003 5.00016C17.5003 5.08228 17.4842 5.1636 17.4527 5.23947C17.4213 5.31534 17.3752 5.38428 17.3172 5.44235L9.81717 12.9423C9.7591 13.0004 9.69016 13.0465 9.61429 13.0779C9.53842 13.1093 9.4571 13.1255 9.37498 13.1255C9.29286 13.1255 9.21154 13.1093 9.13567 13.0779C9.0598 13.0465 8.99086 13.0004 8.93279 12.9423C8.87473 12.8843 8.82866 12.8153 8.79724 12.7395C8.76581 12.6636 8.74963 12.5823 8.74963 12.5002C8.74963 12.418 8.76581 12.3367 8.79724 12.2608C8.82866 12.185 8.87473 12.116 8.93279 12.058ZM9.99998 6.87516C10.5429 6.87447 11.0823 6.96234 11.5969 7.13531C11.675 7.16301 11.7579 7.1749 11.8406 7.17027C11.9234 7.16564 12.0044 7.14459 12.079 7.10834C12.1535 7.0721 12.2201 7.02139 12.2749 6.95916C12.3296 6.89693 12.3715 6.82443 12.398 6.74587C12.4244 6.66732 12.435 6.58428 12.4291 6.5016C12.4232 6.41891 12.4009 6.33823 12.3635 6.26425C12.3261 6.19027 12.2743 6.12447 12.2113 6.07068C12.1482 6.01689 12.075 5.97619 11.9961 5.95094C11.0001 5.61516 9.93548 5.536 8.90078 5.72076C7.86607 5.90553 6.89467 6.34826 6.07644 7.008C5.25821 7.66774 4.61958 8.52318 4.21962 9.49518C3.81967 10.4672 3.67131 11.5244 3.78826 12.5689C3.80517 12.7217 3.87778 12.8629 3.99221 12.9655C4.10664 13.0681 4.25487 13.1249 4.40858 13.1252C4.43123 13.1252 4.45467 13.1252 4.47811 13.1213C4.64282 13.103 4.79354 13.0201 4.89711 12.8907C5.00069 12.7613 5.04865 12.5961 5.03045 12.4314C5.01011 12.2467 4.99994 12.061 4.99998 11.8752C5.00143 10.5495 5.52868 9.27859 6.46605 8.34122C7.40342 7.40385 8.67434 6.87661 9.99998 6.87516ZM17.7922 7.89078C17.7547 7.81774 17.7033 7.75278 17.6407 7.69962C17.5782 7.64646 17.5057 7.60615 17.4276 7.58098C17.3495 7.5558 17.2672 7.54626 17.1853 7.55291C17.1035 7.55955 17.0238 7.58224 16.9508 7.61969C16.8777 7.65714 16.8128 7.7086 16.7596 7.77116C16.7064 7.83371 16.6661 7.90612 16.641 7.98425C16.6158 8.06238 16.6062 8.1447 16.6129 8.22652C16.6195 8.30834 16.6422 8.38805 16.6797 8.4611C17.1421 9.36912 17.4151 10.3616 17.4823 11.3784C17.5494 12.3952 17.4093 13.415 17.0703 14.3759L2.92186 14.3705C2.52711 13.2389 2.40857 12.0294 2.5761 10.8428C2.74364 9.65612 3.1924 8.52671 3.88499 7.54868C4.57757 6.57066 5.49391 5.77235 6.55761 5.22032C7.62132 4.66828 8.80157 4.37851 9.99998 4.37516H10.0687C11.2327 4.38248 12.3787 4.66348 13.414 5.19547C13.4873 5.23578 13.5679 5.26099 13.651 5.2696C13.7342 5.27821 13.8183 5.27004 13.8982 5.24558C13.9782 5.22113 14.0524 5.18088 14.1165 5.12722C14.1806 5.07356 14.2333 5.00759 14.2715 4.9332C14.3097 4.85881 14.3325 4.77751 14.3387 4.69413C14.3449 4.61076 14.3343 4.52698 14.3075 4.44778C14.2807 4.36857 14.2383 4.29554 14.1828 4.23302C14.1273 4.17049 14.0598 4.11973 13.9844 4.08375C12.4257 3.28541 10.6634 2.97311 8.92537 3.18726C7.18732 3.4014 5.55352 4.13213 4.23529 5.28493C2.91707 6.43772 1.97507 7.95954 1.53116 9.65353C1.08725 11.3475 1.16184 13.1357 1.7453 14.7869C1.83148 15.0315 1.99132 15.2434 2.20284 15.3935C2.41436 15.5437 2.66718 15.6246 2.92655 15.6252H17.0726C17.3319 15.6253 17.5847 15.5449 17.7962 15.395C18.0077 15.2451 18.1674 15.0331 18.2531 14.7884C18.6473 13.6673 18.8097 12.4777 18.7305 11.2919C18.6512 10.1061 18.332 8.94876 17.7922 7.89V7.89078Z" fill="#504DFF"/>
</svg>
