<svg width="20" height="20" viewBox="0 0 20 20" fill="none" xmlns="http://www.w3.org/2000/svg">
<g clip-path="url(#clip0_471_1685)">
<rect width="20" height="20" rx="10" fill="#1FB567"/>
<path d="M8.43106 14.4327L4.39355 10.3952L5.40293 9.38587L8.43106 12.414L14.93 5.91504L15.9394 6.92441L8.43106 14.4327Z" fill="white"/>
<mask id="path-3-inside-1_471_1685" fill="white">
<path d="M0 10C0 4.47715 4.47715 0 10 0C15.5228 0 20 4.47715 20 10C20 15.5228 15.5228 20 10 20C4.47715 20 0 15.5228 0 10Z"/>
</mask>
<path d="M0 10M20 10M20 10M0 10M10 0M20 10M10 20M0 10M10 20V19C5.02944 19 1 14.9706 1 10H0H-1C-1 16.0751 3.92487 21 10 21V20ZM20 10H19C19 14.9706 14.9706 19 10 19V20V21C16.0751 21 21 16.0751 21 10H20ZM10 0V1C14.9706 1 19 5.02944 19 10H20H21C21 3.92487 16.0751 -1 10 -1V0ZM10 0V-1C3.92487 -1 -1 3.92487 -1 10H0H1C1 5.02944 5.02944 1 10 1V0Z" fill="#1FB567" mask="url(#path-3-inside-1_471_1685)"/>
</g>
<defs>
<clipPath id="clip0_471_1685">
<rect width="20" height="20" rx="10" fill="white"/>
</clipPath>
</defs>
</svg>
