<svg width="20" height="20" viewBox="0 0 20 20" fill="none" xmlns="http://www.w3.org/2000/svg">
<g clip-path="url(#clip0_471_1641)">
<rect width="20" height="20" rx="10" fill="#FF8B8B"/>
<mask id="path-2-inside-1_471_1641" fill="white">
<path d="M0 10C0 4.47715 4.47715 0 10 0C15.5228 0 20 4.47715 20 10C20 15.5228 15.5228 20 10 20C4.47715 20 0 15.5228 0 10Z"/>
</mask>
<path d="M0 10M20 10M20 10M0 10M10 0M20 10M10 20M0 10M10 20V19C5.02944 19 1 14.9706 1 10H0H-1C-1 16.0751 3.92487 21 10 21V20ZM20 10H19C19 14.9706 14.9706 19 10 19V20V21C16.0751 21 21 16.0751 21 10H20ZM10 0V1C14.9706 1 19 5.02944 19 10H20H21C21 3.92487 16.0751 -1 10 -1V0ZM10 0V-1C3.92487 -1 -1 3.92487 -1 10H0H1C1 5.02944 5.02944 1 10 1V0Z" fill="#FF8B8B" mask="url(#path-2-inside-1_471_1641)"/>
<path d="M9.04175 11.7661V4.64111H10.6251V11.7661H9.04175ZM9.04175 15.7244V14.1411H10.6251V15.7244H9.04175Z" fill="white"/>
</g>
<defs>
<clipPath id="clip0_471_1641">
<rect width="20" height="20" rx="10" fill="white"/>
</clipPath>
</defs>
</svg>
