<svg width="32" height="32" viewBox="0 0 32 32" fill="none" xmlns="http://www.w3.org/2000/svg">
<path d="M14.6667 13.6931L9.33333 4.45312" stroke="white" stroke-width="3" stroke-linecap="round" stroke-linejoin="round"/>
<path d="M14.6667 18.3066L9.33333 27.5466" stroke="white" stroke-width="3" stroke-linecap="round" stroke-linejoin="round"/>
<path d="M16 29.3332V26.6665" stroke="white" stroke-width="3" stroke-linecap="round" stroke-linejoin="round"/>
<path d="M16 2.6665V5.33317" stroke="white" stroke-width="3" stroke-linecap="round" stroke-linejoin="round"/>
<path d="M18.6667 16H29.3333" stroke="white" stroke-width="3" stroke-linecap="round" stroke-linejoin="round"/>
<path d="M22.6667 27.5469L21.3333 25.2402" stroke="white" stroke-width="3" stroke-linecap="round" stroke-linejoin="round"/>
<path d="M22.6667 4.45312L21.3333 6.75979" stroke="white" stroke-width="3" stroke-linecap="round" stroke-linejoin="round"/>
<path d="M2.66667 16H5.33334" stroke="white" stroke-width="3" stroke-linecap="round" stroke-linejoin="round"/>
<path d="M27.5467 22.6668L25.24 21.3335" stroke="white" stroke-width="3" stroke-linecap="round" stroke-linejoin="round"/>
<path d="M27.5467 9.3335L25.24 10.6668" stroke="white" stroke-width="3" stroke-linecap="round" stroke-linejoin="round"/>
<path d="M4.45334 22.6668L6.76001 21.3335" stroke="white" stroke-width="3" stroke-linecap="round" stroke-linejoin="round"/>
<path d="M4.45334 9.3335L6.76001 10.6668" stroke="white" stroke-width="3" stroke-linecap="round" stroke-linejoin="round"/>
<path d="M16 18.6668C17.4728 18.6668 18.6667 17.4729 18.6667 16.0002C18.6667 14.5274 17.4728 13.3335 16 13.3335C14.5272 13.3335 13.3333 14.5274 13.3333 16.0002C13.3333 17.4729 14.5272 18.6668 16 18.6668Z" stroke="white" stroke-width="3" stroke-linecap="round" stroke-linejoin="round"/>
<path d="M16 26.6668C21.891 26.6668 26.6667 21.8912 26.6667 16.0002C26.6667 10.1091 21.891 5.3335 16 5.3335C10.109 5.3335 5.33333 10.1091 5.33333 16.0002C5.33333 21.8912 10.109 26.6668 16 26.6668Z" stroke="white" stroke-width="3" stroke-linecap="round" stroke-linejoin="round"/>
</svg>
