<svg width="32" height="32" viewBox="0 0 32 32" fill="none" xmlns="http://www.w3.org/2000/svg">
<path d="M16 29.3332C23.3638 29.3332 29.3333 23.3636 29.3333 15.9998C29.3333 8.63604 23.3638 2.6665 16 2.6665C8.63621 2.6665 2.66667 8.63604 2.66667 15.9998C2.66667 23.3636 8.63621 29.3332 16 29.3332Z" stroke="white" stroke-width="3" stroke-linecap="round" stroke-linejoin="round"/>
<path d="M21.3333 10.6665H13.3333C12.6261 10.6665 11.9478 10.9475 11.4477 11.4476C10.9476 11.9477 10.6667 12.6259 10.6667 13.3332C10.6667 14.0404 10.9476 14.7187 11.4477 15.2188C11.9478 15.7189 12.6261 15.9998 13.3333 15.9998H18.6667C19.3739 15.9998 20.0522 16.2808 20.5523 16.7809C21.0524 17.281 21.3333 17.9593 21.3333 18.6665C21.3333 19.3737 21.0524 20.052 20.5523 20.5521C20.0522 21.0522 19.3739 21.3332 18.6667 21.3332H10.6667" stroke="white" stroke-width="3" stroke-linecap="round" stroke-linejoin="round"/>
<path d="M16 24V8" stroke="white" stroke-width="3" stroke-linecap="round" stroke-linejoin="round"/>
</svg>
