<svg width="32" height="32" viewBox="0 0 32 32" fill="none" xmlns="http://www.w3.org/2000/svg">
<path d="M25.8853 19.2187C28 17.104 29.3333 15.3334 29.3333 12.6667C29.3333 11.183 28.8832 9.73414 28.0425 8.51158C27.2018 7.28902 26.01 6.35024 24.6245 5.81923C23.2391 5.28822 21.7251 5.18995 20.2827 5.53742C18.8402 5.88489 17.537 6.66174 16.5453 7.76536M25.8853 19.2187C25.6224 19.4817 25.3101 19.6904 24.9665 19.8327C24.6229 19.975 24.2546 20.0483 23.8827 20.0483C23.5107 20.0483 23.1424 19.975 22.7988 19.8327C22.4552 19.6904 22.143 19.4817 21.88 19.2187C22.1647 19.4762 22.3941 19.7888 22.5543 20.1377C22.7145 20.4866 22.802 20.8644 22.8117 21.2481C22.8213 21.6319 22.7528 22.0136 22.6104 22.3701C22.468 22.7265 22.2545 23.0503 21.9831 23.3218C21.7116 23.5932 21.3879 23.8066 21.0314 23.9491C20.6749 24.0915 20.2932 24.16 19.9094 24.1504C19.5257 24.1407 19.1479 24.0532 18.799 23.893C18.4501 23.7328 18.1375 23.5034 17.88 23.2187C18.1432 23.4809 18.3521 23.7924 18.4949 24.1353C18.6376 24.4783 18.7113 24.8461 18.7118 25.2176C18.7123 25.5891 18.6396 25.957 18.4978 26.3004C18.356 26.6438 18.1478 26.9558 17.8853 27.2187C17.632 27.4721 17.3301 27.6719 16.9978 27.8061C16.6655 27.9403 16.3096 28.0061 15.9513 27.9996C15.593 27.9931 15.2396 27.9145 14.9124 27.7684C14.5852 27.6223 14.2907 27.4118 14.0467 27.1494L6.66667 20C4.66667 18 2.66667 15.7334 2.66667 12.6667C2.66697 11.1831 3.11726 9.73444 3.95808 8.51209C4.7989 7.28974 5.99071 6.35117 7.37611 5.82032C8.7615 5.28948 10.2753 5.19133 11.7177 5.53883C13.16 5.88634 14.463 6.66315 15.4547 7.7667C15.6029 7.90448 15.7979 7.98095 16.0003 7.9807C16.2027 7.98045 16.3974 7.9035 16.5453 7.76536M25.8853 19.2187C26.3853 18.7186 26.6661 18.0405 26.6661 17.3334C26.6661 16.6263 26.3853 15.9481 25.8853 15.448L23.3773 12.9387C23.0789 12.6402 22.7246 12.4033 22.3347 12.2418C21.9447 12.0802 21.5268 11.997 21.1047 11.997C20.6826 11.997 20.2646 12.0802 19.8747 12.2418C19.4847 12.4033 19.1304 12.6402 18.832 12.9387L16.552 15.2187C16.0519 15.7186 15.3738 15.9995 14.6667 15.9995C13.9596 15.9995 13.2814 15.7186 12.7813 15.2187C12.2814 14.7186 12.0006 14.0405 12.0006 13.3334C12.0006 12.6263 12.2814 11.9481 12.7813 11.448L16.5453 7.76536" stroke="white" stroke-width="3" stroke-linecap="round" stroke-linejoin="round"/>
</svg>
