<svg width="24" height="24" viewBox="0 0 24 24" fill="none" xmlns="http://www.w3.org/2000/svg">
<path d="M1.39825 7C1.39831 6.20431 1.71355 5.44116 2.27482 4.87715L4.87697 2.275C5.44098 1.71374 6.20413 1.39849 6.99982 1.39844C7.7459 1.39844 8.46388 1.67526 9.01544 2.17246L9.12325 2.275L13.424 6.57578C13.6584 6.8101 13.6583 7.1899 13.424 7.42422C13.1897 7.65853 12.8099 7.65853 12.5756 7.42422L8.27658 3.1252C7.93741 2.7878 7.47823 2.59844 6.99982 2.59844C6.52194 2.59849 6.06296 2.78699 5.72394 3.12373C5.72378 3.12389 5.72378 3.12416 5.72394 3.12432C5.7241 3.12448 5.7241 3.12474 5.72394 3.1249L3.12472 5.72412C3.12456 5.72428 3.1243 5.72428 3.12413 5.72412C3.12397 5.72396 3.12371 5.72396 3.12355 5.72412C2.78681 6.06314 2.59831 6.52212 2.59825 7C2.59825 7.47813 2.78739 7.93707 3.12443 8.27617L7.42404 12.5758C7.65835 12.8101 7.65835 13.1899 7.42404 13.4242C7.18972 13.6585 6.80991 13.6585 6.5756 13.4242L2.27482 9.12344C1.71348 8.55938 1.39825 7.79578 1.39825 7Z" fill="white"/>
<path d="M9.57558 3.57559C9.80986 3.34131 10.1897 3.34137 10.424 3.57559C10.6583 3.8099 10.6583 4.18971 10.424 4.42403L8.42421 6.42383C8.1899 6.65815 7.81009 6.65815 7.57577 6.42383C7.34156 6.18951 7.34149 5.80968 7.57577 5.57539L9.57558 3.57559Z" fill="white"/>
<path d="M19.5756 13.5756C19.8099 13.3413 20.1897 13.3414 20.424 13.5756C20.6583 13.8099 20.6583 14.1897 20.424 14.424L18.4242 16.4238C18.1899 16.6581 17.8101 16.6581 17.5758 16.4238C17.3416 16.1895 17.3415 15.8097 17.5758 15.5754L19.5756 13.5756Z" fill="white"/>
<path d="M16.5758 10.5756C16.8101 10.3413 17.1899 10.3413 17.4242 10.5756L21.7244 14.8758C22.8984 16.0501 22.8984 17.9496 21.7244 19.1239L19.124 21.7243C17.9497 22.8983 16.0502 22.8983 14.876 21.7243L10.5758 17.4241C10.3414 17.1898 10.3414 16.81 10.5758 16.5756C10.8101 16.3413 11.1899 16.3413 11.4242 16.5756L15.7244 20.8758C16.43 21.5813 17.5699 21.5813 18.2756 20.8758L20.876 18.2754C21.5814 17.5698 21.5814 16.4299 20.876 15.7243L16.5758 11.4241C16.3414 11.1898 16.3414 10.81 16.5758 10.5756Z" fill="white"/>
<path d="M19.1815 1.39941C20.0882 1.39955 20.958 1.76014 21.5991 2.40137C22.24 3.04259 22.6 3.91233 22.5998 4.81895C22.5997 5.7255 22.2395 6.59493 21.5985 7.23594L8.25187 20.5843C8.25156 20.5846 8.25131 20.585 8.25111 20.5854C8.25092 20.5857 8.25066 20.5861 8.25035 20.5864C7.94916 20.8865 7.57867 21.1077 7.17192 21.2315C7.17166 21.2316 7.17142 21.2317 7.17123 21.2319C7.17104 21.2321 7.1708 21.2323 7.17054 21.2323L2.81863 22.5516C2.81821 22.5517 2.81781 22.5519 2.81742 22.552C2.81703 22.5522 2.81662 22.5524 2.8162 22.5525C2.62629 22.6095 2.42437 22.6141 2.23207 22.5658C2.03953 22.5174 1.8634 22.4178 1.72289 22.2775C1.58237 22.1372 1.48216 21.9614 1.43344 21.7689C1.38472 21.5765 1.3895 21.3744 1.44633 21.1842L1.44691 21.1813L2.76762 16.8295L2.7682 16.8277C2.89304 16.4206 3.11602 16.0504 3.41742 15.7496L16.7639 2.40078C17.4051 1.75983 18.2748 1.3993 19.1815 1.39941ZM19.1815 2.59941C18.593 2.59934 18.0285 2.83317 17.6123 3.24922L4.26586 16.5986C4.10333 16.7607 3.98275 16.9605 3.91547 17.1799C3.37486 18.9606 5.04136 20.6237 6.8223 20.0838L6.90375 20.0563C7.09096 19.9865 7.26159 19.8773 7.40355 19.7357L20.7495 6.3875C21.1655 5.97144 21.3998 5.40678 21.3998 4.81836C21.3999 4.22995 21.1661 3.66534 20.75 3.24922C20.334 2.83323 19.7698 2.59955 19.1815 2.59941Z" fill="white"/>
<path d="M14.5758 4.57564C14.8101 4.34132 15.1899 4.34132 15.4242 4.57564L19.4244 8.57583C19.6585 8.81016 19.6586 9.19002 19.4244 9.42427C19.1901 9.65852 18.8103 9.65839 18.576 9.42427L14.5758 5.42408C14.3414 5.18976 14.3414 4.80995 14.5758 4.57564Z" fill="white"/>
</svg>
