<svg width="22" height="24" viewBox="0 0 22 24" fill="none" xmlns="http://www.w3.org/2000/svg">
<path d="M5.70771 4.29286L0.29293 9.70707C0.105371 9.89461 0 10.149 0 10.4142V13.5857C0 13.8509 0.105371 14.1053 0.29293 14.2928L3.29318 17.2928C3.68375 17.6833 3.68375 18.3165 3.29318 18.7071L0.29293 21.707C0.105371 21.8945 0 22.1489 0 22.4142V22.9999C0 23.5522 0.447715 23.9999 1 23.9999H5.58641C5.85161 23.9999 6.10595 23.8946 6.29348 23.707L11.294 18.7071C11.6845 18.3165 11.6845 17.6833 11.294 17.2928L6.70781 12.7071C6.31724 12.3166 6.31724 11.6833 6.70781 11.2928L11.294 6.70713C11.6845 6.3166 11.6845 5.68338 11.294 5.29285L10.2939 4.29286C10.1063 4.10534 9.852 4 9.58681 4H6.41478C6.14958 4 5.89524 4.10534 5.70771 4.29286Z" fill="white"/>
<path d="M11.7061 0.292861L10.706 1.29287C10.3154 1.6834 10.3154 2.31662 10.706 2.70715L11.7061 3.70714C11.8936 3.89466 12.148 4 12.4132 4H13.585C14.4759 4 14.9221 5.07719 14.2921 5.70714L8.70581 11.2928C8.31524 11.6833 8.31524 12.3166 8.70581 12.7071L11.2919 15.2929C11.6824 15.6834 12.3155 15.6834 12.7061 15.2929L17.2925 10.707C17.683 10.3165 18.3161 10.3165 18.7067 10.707L19.2927 11.293C19.6832 11.6834 20.3163 11.6834 20.7069 11.293L21.7071 10.2929C21.8946 10.1053 22 9.85096 22 9.58572V1.00002C22 0.447733 21.5523 1.85611e-05 21 1.74881e-05L12.4132 0C12.148 0 11.8936 0.105344 11.7061 0.292861Z" fill="white"/>
</svg>
