<svg width="24" height="24" viewBox="0 0 24 24" fill="none" xmlns="http://www.w3.org/2000/svg">
<g clip-path="url(#clip0_424_2907)">
<path d="M13.7468 21.6325C13.6495 21.6324 13.5556 21.5965 13.4831 21.5316C13.4106 21.4667 13.3646 21.3773 13.3538 21.2806C13.343 21.1839 13.3683 21.0866 13.4247 21.0074C13.4811 20.9281 13.5648 20.8724 13.6597 20.851C15.4202 20.4523 17.0202 19.4379 18.1653 17.9943C19.3282 16.5283 19.9686 14.6779 19.9686 12.784C19.9686 10.7806 19.2608 8.84843 17.9757 7.34332C17.9076 7.26352 17.8739 7.15991 17.8822 7.0553C17.8904 6.95069 17.9399 6.85364 18.0197 6.7855C18.0995 6.71736 18.2031 6.68371 18.3077 6.69196C18.4123 6.70021 18.5093 6.74967 18.5775 6.82947C19.9849 8.4777 20.7599 10.5923 20.7599 12.7839C20.7599 14.8556 20.0586 16.8806 18.7852 18.486C17.5285 20.0703 15.7703 21.1842 13.8345 21.6225C13.8057 21.6292 13.7763 21.6325 13.7468 21.6325Z" fill="#FB8F2E"/>
<path d="M23.0053 6.08323C22.9627 5.94649 22.8643 5.83034 22.7357 5.76457C22.6082 5.69932 22.4581 5.68751 22.3238 5.73227C20.7976 6.24176 20.1927 7.17748 20.0036 7.55619C19.4374 8.6893 19.7538 10.0203 19.9159 10.5398C19.9586 10.6766 20.0569 10.7928 20.1855 10.8587C20.2616 10.8975 20.3458 10.9178 20.4312 10.9178C20.4876 10.9178 20.5438 10.9089 20.5975 10.891C22.124 10.3814 22.7287 9.44568 22.9178 9.06707C23.4838 7.93433 23.1676 6.60312 23.0053 6.08323ZM23.8566 12.3351C23.7593 12.2296 23.6226 12.1667 23.4813 12.1624C21.8731 12.1131 20.9819 12.7816 20.6734 13.0715C19.7505 13.9389 19.587 15.2972 19.5595 15.841C19.5523 15.9841 19.6044 16.1271 19.7023 16.2334C19.7996 16.3388 19.9363 16.4017 20.0776 16.4061C20.1348 16.4078 20.1909 16.4087 20.2461 16.4087C21.7485 16.4087 22.588 15.7765 22.8854 15.497C23.8083 14.6296 23.9719 13.2712 23.9993 12.7274C24.0066 12.5843 23.9546 12.4413 23.8566 12.3351ZM22.3254 18.792C22.2984 18.6512 22.2153 18.5255 22.0975 18.4474C20.757 17.5573 19.6473 17.656 19.2323 17.7397C17.9907 17.9903 17.1358 19.0584 16.8258 19.5058C16.7442 19.6236 16.713 19.7727 16.7402 19.9146C16.7673 20.0555 16.8504 20.1811 16.9681 20.2593C17.9012 20.8788 18.7221 21.0193 19.2751 21.0193C19.5167 21.0193 19.7072 20.9924 19.8333 20.967C21.0749 20.7164 21.9299 19.6484 22.2399 19.2008C22.3215 19.0829 22.3527 18.934 22.3254 18.792ZM18.4682 4.09792C17.9139 3.02664 16.7292 2.54823 16.2456 2.39232C16.1125 2.34934 15.9643 2.3626 15.8391 2.4287C15.7132 2.49517 15.618 2.61095 15.578 2.74614C15.4317 3.23945 15.1513 4.50208 15.7041 5.57041C16.2585 6.64165 17.4431 7.12001 17.9267 7.27601C17.9782 7.29261 18.0319 7.30081 18.0857 7.30081C18.171 7.30081 18.2564 7.28014 18.3332 7.23964C18.4592 7.17317 18.5544 7.05739 18.5943 6.9222C18.7405 6.42888 19.021 5.16625 18.4682 4.09792Z" fill="#FFAE47"/>
<path d="M10.2532 21.6325C10.2237 21.6324 10.1943 21.6292 10.1655 21.6227C8.22974 21.1844 6.47159 20.0704 5.21482 18.4861C3.94141 16.8808 3.24011 14.8558 3.24011 12.784C3.24011 10.5925 4.01515 8.47786 5.42248 6.82964C5.45622 6.79012 5.49741 6.75764 5.5437 6.73405C5.58999 6.71046 5.64047 6.69622 5.69227 6.69214C5.74406 6.68806 5.79615 6.69422 5.84557 6.71028C5.89498 6.72634 5.94074 6.75197 5.98025 6.78571C6.06004 6.85385 6.1095 6.95089 6.11775 7.05549C6.126 7.16009 6.09235 7.26369 6.02422 7.34348C4.73904 8.84855 4.03127 10.7807 4.03127 12.7841C4.03127 14.678 4.67173 16.5284 5.83461 17.9945C6.97963 19.4379 8.57976 20.4525 10.3402 20.8511C10.435 20.8726 10.5186 20.9283 10.5749 21.0076C10.6312 21.0868 10.6565 21.184 10.6457 21.2806C10.6349 21.3772 10.589 21.4665 10.5166 21.5314C10.4442 21.5963 10.3505 21.6323 10.2532 21.6325Z" fill="#FB8F2E"/>
<path d="M3.32666 13.0714C3.01818 12.7815 2.12722 12.113 0.518837 12.1623C0.377415 12.1667 0.240586 12.2297 0.143367 12.3351C0.0453979 12.4415 -0.00663356 12.5845 0.000678971 12.7274C0.0281478 13.2711 0.191695 14.6295 1.11453 15.497C1.41209 15.7765 2.25139 16.4086 3.75379 16.4086C3.80905 16.4086 3.8653 16.4078 3.9223 16.4061C4.06373 16.4017 4.20055 16.3387 4.29777 16.2333C4.39574 16.1269 4.44777 15.9839 4.44046 15.841C4.41304 15.2971 4.24954 13.9388 3.32666 13.0714ZM7.17427 19.5058C6.86428 19.0583 6.00914 17.9902 4.7677 17.7396C4.35271 17.6558 3.24313 17.5572 1.90259 18.4471C1.7847 18.5254 1.70159 18.651 1.67454 18.7919C1.64731 18.9338 1.67848 19.0828 1.76009 19.2006C2.07008 19.6482 2.92522 20.7163 4.16652 20.9668C4.29281 20.9923 4.48317 21.0191 4.7249 21.0191C5.27784 21.019 6.09905 20.8785 7.03172 20.2592C7.14957 20.181 7.23263 20.0554 7.25968 19.9146C7.2732 19.8442 7.27261 19.7718 7.25795 19.7017C7.24329 19.6315 7.21485 19.5649 7.17427 19.5058ZM3.99651 7.55616C3.80737 7.1775 3.20258 6.24173 1.67637 5.73225C1.54208 5.68734 1.39198 5.69915 1.26434 5.76454C1.13557 5.8304 1.03732 5.94661 0.994761 6.08325C0.832526 6.60295 0.516212 7.93407 1.08232 9.06713C1.27147 9.44575 1.87625 10.3815 3.40255 10.891C3.45618 10.9089 3.51235 10.9179 3.56887 10.9179C3.65333 10.9179 3.73794 10.898 3.81444 10.8588C3.94312 10.793 4.04141 10.6768 4.08416 10.54C4.2463 10.0202 4.56248 8.68899 3.99651 7.55616ZM8.42209 2.74611C8.38196 2.61078 8.28676 2.49509 8.16076 2.42867C8.0357 2.36267 7.88762 2.34945 7.75444 2.3923C7.27079 2.54825 6.08611 3.02666 5.53176 4.0979C4.97901 5.16618 5.25942 6.42881 5.40562 6.92222C5.44575 7.05755 5.54095 7.17324 5.66695 7.23966C5.74325 7.27982 5.82818 7.3008 5.91441 7.30078C5.96817 7.30078 6.0218 7.29253 6.07327 7.27599C6.55692 7.12003 7.7416 6.64158 8.29595 5.57039C8.84875 4.50205 8.56834 3.23947 8.42209 2.74611Z" fill="#FFAE47"/>
<path d="M17.5466 11.2317C17.5238 11.1615 17.4818 11.0991 17.4253 11.0515C17.3689 11.0039 17.3003 10.9731 17.2272 10.9625L13.8604 10.4733L12.3547 7.42243C12.3221 7.35622 12.2715 7.30047 12.2088 7.26149C12.1461 7.2225 12.0738 7.20184 11.9999 7.20184C11.9261 7.20184 11.8537 7.2225 11.791 7.26149C11.7283 7.30047 11.6778 7.35622 11.6451 7.42243L10.1395 10.4733L6.77271 10.9625C6.69966 10.9731 6.63104 11.004 6.5746 11.0515C6.51816 11.0991 6.47616 11.1615 6.45334 11.2317C6.43052 11.3019 6.4278 11.3771 6.44547 11.4488C6.46315 11.5205 6.50053 11.5858 6.55338 11.6373L8.98962 14.012L8.41455 17.3653C8.40203 17.438 8.41013 17.5128 8.43792 17.5812C8.46572 17.6496 8.5121 17.7089 8.57183 17.7523C8.63155 17.7957 8.70223 17.8215 8.77587 17.8268C8.84951 17.8321 8.92316 17.8167 8.98849 17.7823L11.9998 16.1991L15.0112 17.7823C15.0766 17.8167 15.1502 17.8321 15.2238 17.8268C15.2975 17.8214 15.3682 17.7956 15.4279 17.7522C15.4876 17.7088 15.534 17.6496 15.5618 17.5812C15.5896 17.5128 15.5977 17.438 15.5852 17.3652L15.0101 14.012L17.4463 11.6373C17.4992 11.5858 17.5367 11.5205 17.5544 11.4488C17.5721 11.3772 17.5694 11.3019 17.5466 11.2317Z" fill="#FFD039"/>
<path d="M15.1955 17.8277C15.2531 17.8277 15.31 17.8152 15.3623 17.7909C15.4145 17.7666 15.4608 17.7312 15.498 17.6871C15.5351 17.6431 15.5622 17.5914 15.5773 17.5358C15.5924 17.4802 15.5951 17.422 15.5854 17.3652L15.0102 14.012L17.4465 11.6373C17.4994 11.5857 17.5368 11.5205 17.5545 11.4488C17.5722 11.3771 17.5695 11.3019 17.5467 11.2317C17.5239 11.1615 17.4819 11.0991 17.4254 11.0515C17.3689 11.0039 17.3003 10.9731 17.2272 10.9625L16.2638 10.8226L13.4682 13.5499L14.1432 17.3259L15.0114 17.7823C15.0682 17.8121 15.1313 17.8277 15.1955 17.8277Z" fill="#FFAE47"/>
</g>
<defs>
<clipPath id="clip0_424_2907">
<rect width="24" height="24" fill="white"/>
</clipPath>
</defs>
</svg>
