<svg width="32" height="32" viewBox="0 0 32 32" fill="none" xmlns="http://www.w3.org/2000/svg">
<path d="M13.3333 29.3333V9.33333C13.3333 8.97971 13.1929 8.64057 12.9428 8.39052C12.6928 8.14048 12.3536 8 12 8H5.33334C4.62609 8 3.94782 8.28095 3.44772 8.78105C2.94762 9.28115 2.66667 9.95942 2.66667 10.6667V26.6667C2.66667 27.3739 2.94762 28.0522 3.44772 28.5523C3.94782 29.0524 4.62609 29.3333 5.33334 29.3333H21.3333C22.0406 29.3333 22.7189 29.0524 23.219 28.5523C23.7191 28.0522 24 27.3739 24 26.6667V20C24 19.6464 23.8595 19.3072 23.6095 19.0572C23.3594 18.8071 23.0203 18.6667 22.6667 18.6667H2.66667" stroke="white" stroke-width="3" stroke-linecap="round" stroke-linejoin="round"/>
<path d="M28 2.6665H20C19.2636 2.6665 18.6667 3.26346 18.6667 3.99984V11.9998C18.6667 12.7362 19.2636 13.3332 20 13.3332H28C28.7364 13.3332 29.3333 12.7362 29.3333 11.9998V3.99984C29.3333 3.26346 28.7364 2.6665 28 2.6665Z" stroke="white" stroke-width="3" stroke-linecap="round" stroke-linejoin="round"/>
</svg>
