<svg width="24" height="24" viewBox="0 0 24 24" fill="none" xmlns="http://www.w3.org/2000/svg">
<path d="M5.99103 15.388C6.63301 15.408 7.2469 15.6496 7.72951 16.0695L7.82443 16.1556L7.83146 16.1627C8.86064 17.1788 8.85523 18.8256 7.95829 19.8871C7.95815 19.8873 7.95789 19.8873 7.95773 19.8872C7.95757 19.887 7.95731 19.887 7.95717 19.8872C7.56561 20.3525 7.01279 20.7096 6.4504 20.9843C5.8804 21.2627 5.25895 21.4774 4.69259 21.6394C4.12427 21.802 3.59883 21.9154 3.21603 21.988C3.02427 22.0245 2.86724 22.0509 2.75724 22.0683C2.70236 22.077 2.659 22.0833 2.62892 22.0877C2.61393 22.0898 2.60201 22.0918 2.59376 22.0929C2.58964 22.0935 2.58616 22.0938 2.5838 22.0941C2.58266 22.0943 2.58158 22.0946 2.58087 22.0947H2.5797C2.39441 22.1195 2.20799 22.0564 2.07579 21.9242C1.9436 21.792 1.88051 21.6056 1.90529 21.4203V21.4191C1.90538 21.4184 1.90572 21.4173 1.90587 21.4162C1.90619 21.4138 1.90647 21.4103 1.90704 21.4062C1.90819 21.398 1.91013 21.3861 1.91232 21.3711C1.91669 21.341 1.92295 21.2976 1.93165 21.2427C1.94909 21.1327 1.97552 20.9757 2.01193 20.7839C2.08461 20.4011 2.198 19.8757 2.36056 19.3074C2.52256 18.741 2.73723 18.1196 3.01564 17.5496C3.29072 16.9864 3.64802 16.4319 4.11427 16.0402C4.63809 15.5992 5.30657 15.3669 5.99103 15.388ZM5.95353 16.5875C5.56434 16.5755 5.18429 16.708 4.88654 16.9589L4.88595 16.9595C4.60224 17.1979 4.33428 17.5839 4.09376 18.0763C3.85665 18.5618 3.66473 19.1113 3.51427 19.6373C3.36407 20.1624 3.83761 20.6359 4.36271 20.4857C4.88868 20.3352 5.43816 20.1433 5.92365 19.9062C6.41605 19.6657 6.80209 19.3977 7.04044 19.114L7.04162 19.1129C7.56386 18.495 7.53909 17.5627 6.99005 17.0187C6.70903 16.7531 6.34021 16.5994 5.95353 16.5875Z" fill="white"/>
<path d="M22.0037 1.39967C22.3335 1.40172 22.6001 1.66987 22.6002 1.99967C22.6002 4.83736 21.7786 9.84757 16.3342 13.4981C16.3297 13.5011 16.3252 13.5041 16.3207 13.5069C15.0237 14.3271 13.6476 15.0151 12.2133 15.5606C11.9924 15.6446 11.7429 15.5912 11.5758 15.4241L8.57577 12.4241C8.40802 12.2563 8.35509 12.0056 8.44042 11.7842C8.98706 10.3661 9.67521 9.00663 10.4947 7.72663C11.7139 5.77926 13.4105 4.17571 15.4236 3.06842C17.4387 1.96014 19.704 1.38541 22.0037 1.39967ZM19.9008 8.00115C21.3651 5.3481 18.6572 2.65922 16.0019 4.1196C14.1663 5.12922 12.6199 6.59204 11.509 8.36823L11.5055 8.3735C11.1107 8.99014 10.7483 9.62635 10.4193 10.2794C9.94733 11.2164 10.1859 12.3373 10.9277 13.0792C11.6663 13.8177 12.7809 14.0577 13.7169 13.5941C14.3869 13.2623 15.0397 12.8961 15.6726 12.4962C17.7131 11.1264 19.0423 9.55643 19.9008 8.00115Z" fill="white"/>
<path d="M7.409 6.94693C8.01248 6.89084 8.63446 6.92879 9.18439 6.99966C9.73656 7.07083 10.2326 7.17755 10.5901 7.26568C10.7693 7.30988 10.9153 7.34953 11.0172 7.37876C11.0681 7.39337 11.1082 7.40541 11.1361 7.41392C11.1501 7.41817 11.1612 7.42145 11.169 7.42388C11.1729 7.4251 11.176 7.42609 11.1783 7.42681C11.1794 7.42715 11.1804 7.42767 11.1811 7.42793C11.1812 7.42797 11.1813 7.42798 11.1814 7.42798C11.1817 7.42798 11.182 7.42809 11.1821 7.42828L11.1822 7.42835C11.1824 7.4285 11.1825 7.4286 11.1827 7.42866C11.4982 7.52964 11.6723 7.86712 11.5715 8.18267C11.4769 8.47862 11.1742 8.64992 10.8766 8.58697L10.8178 8.57184C10.8175 8.57177 10.8173 8.57163 10.8171 8.57142C10.8169 8.57124 10.8167 8.5711 10.8164 8.57105C10.8154 8.5708 10.8137 8.57065 10.8115 8.56998C10.8064 8.56839 10.7981 8.56575 10.7869 8.56236C10.7646 8.55558 10.7306 8.54524 10.6861 8.53248C10.5969 8.50687 10.4659 8.4707 10.3029 8.43052C9.97604 8.34992 9.52603 8.25411 9.03087 8.19029C8.53333 8.12617 8.00619 8.09651 7.52032 8.14166C7.02994 8.18723 6.62448 8.30415 6.33356 8.49768C6.33338 8.4978 6.33336 8.49805 6.33351 8.4982C6.33366 8.49835 6.33364 8.4986 6.33346 8.49872C5.78256 8.86747 5.33539 9.69948 5.02013 10.5686C4.87041 10.9814 5.19107 11.4001 5.63018 11.4001H8.99982C9.33119 11.4001 9.59982 11.6687 9.59982 12.0001C9.59977 12.3314 9.33116 12.6001 8.99982 12.6001H4.00001C3.82213 12.6001 3.65346 12.521 3.53947 12.3844C3.42554 12.248 3.37769 12.068 3.40934 11.8931C3.40937 11.8929 3.4095 11.8928 3.40965 11.8928C3.40983 11.8928 3.40997 11.8927 3.40997 11.8925V11.8912C3.40997 11.8911 3.40998 11.891 3.41 11.8909C3.41013 11.8903 3.4104 11.8896 3.41056 11.8887C3.41094 11.8867 3.41109 11.8839 3.41173 11.8805C3.41306 11.8734 3.41513 11.8632 3.41759 11.8506C3.42251 11.8254 3.42969 11.7894 3.43927 11.744C3.45842 11.6532 3.48699 11.5239 3.52599 11.3667C3.60377 11.0531 3.72387 10.6231 3.8922 10.159C4.21434 9.27097 4.76736 8.10287 5.66608 7.50145C5.6663 7.5013 5.66652 7.50113 5.66671 7.50093C5.66691 7.50074 5.66712 7.50056 5.66735 7.50041C6.18623 7.15461 6.81087 7.00254 7.409 6.94693Z" fill="white"/>
<path d="M15.8174 12.4286C15.9918 12.3728 16.1728 12.401 16.317 12.4905C16.5153 12.6137 16.3913 12.8747 16.1689 12.9459L16.5703 12.818C16.571 12.8178 16.5717 12.8181 16.572 12.8187C16.572 12.8188 16.5721 12.8188 16.5721 12.8189C16.5723 12.8196 16.5723 12.8206 16.5727 12.8217C16.5734 12.824 16.5744 12.8272 16.5756 12.8311C16.578 12.8389 16.5819 12.85 16.5861 12.8639C16.5946 12.8919 16.6067 12.932 16.6213 12.9829C16.6505 13.0847 16.6902 13.2303 16.7344 13.4094C16.8225 13.7669 16.9286 14.2634 16.9998 14.8157C17.0707 15.3655 17.1092 15.9871 17.0531 16.5905C16.9975 17.1887 16.8453 17.8135 16.4994 18.3325L16.4988 18.3336C15.8975 19.2325 14.7292 19.7857 13.841 20.1079C13.3769 20.2762 12.9464 20.3957 12.6328 20.4735C12.4758 20.5124 12.3468 20.541 12.256 20.5602C12.2106 20.5698 12.1746 20.5775 12.1494 20.5825C12.1368 20.5849 12.1266 20.5864 12.1195 20.5877C12.1161 20.5884 12.1134 20.5891 12.1113 20.5895C12.1105 20.5896 12.1096 20.5898 12.109 20.59C12.1086 20.59 12.1082 20.5901 12.1078 20.5901C12.1074 20.5901 12.107 20.5901 12.1066 20.5902C11.9319 20.6217 11.752 20.5744 11.6156 20.4606C11.4791 20.3466 11.4001 20.1779 11.4 20V14.9996C11.4001 14.6684 11.6687 14.3996 12 14.3996C12.3313 14.3996 12.5999 14.6684 12.6 14.9996V18.3697C12.6 18.8089 13.0186 19.1291 13.4314 18.9793C14.3007 18.664 15.1329 18.2173 15.5016 17.6663C15.6952 17.3753 15.8128 16.9702 15.8584 16.4797C15.9035 15.9939 15.8739 15.4667 15.8098 14.9692C15.746 14.4741 15.6501 14.024 15.5695 13.6971C15.5294 13.5343 15.4932 13.4032 15.4676 13.3139C15.4548 13.2693 15.4445 13.2348 15.4377 13.2125C15.4344 13.2016 15.4317 13.1936 15.4301 13.1885C15.4295 13.1866 15.4293 13.185 15.4291 13.1839C15.429 13.1835 15.4288 13.183 15.4286 13.1827C15.4284 13.1823 15.4282 13.1819 15.4281 13.1814C15.328 12.8661 15.5021 12.5293 15.8174 12.4286Z" fill="white"/>
</svg>
