<svg width="24" height="24" viewBox="0 0 24 24" fill="none" xmlns="http://www.w3.org/2000/svg">
<path d="M13.293 8.29289C13.6835 7.90237 14.3165 7.90237 14.707 8.29289C15.0976 8.68342 15.0976 9.31643 14.707 9.70696L10.707 13.707C10.3165 14.0975 9.68349 14.0975 9.29297 13.707L7.29297 11.707C6.90245 11.3164 6.90245 10.6834 7.29297 10.2929C7.68349 9.90237 8.31651 9.90237 8.70703 10.2929C9.42112 11.007 10.5789 11.007 11.293 10.2929L13.293 8.29289Z" fill="white"/>
<path d="M18 11C18 7.13401 14.866 4 11 4C7.13401 4 4 7.13401 4 11C4 14.866 7.13401 18 11 18C14.866 18 18 14.866 18 11ZM20 11C20 15.9706 15.9706 20 11 20C6.02944 20 2 15.9706 2 11C2 6.02944 6.02944 2 11 2C15.9706 2 20 6.02944 20 11Z" fill="white"/>
<path d="M15.993 15.9931C16.3835 15.6026 17.0165 15.6026 17.407 15.9931L21.7068 20.2929C22.0974 20.6834 22.0974 21.3164 21.7068 21.707C21.3163 22.0975 20.6833 22.0975 20.2928 21.707L15.993 17.4072C15.6024 17.0166 15.6024 16.3836 15.993 15.9931Z" fill="white"/>
</svg>
