<svg width="127" height="32" viewBox="0 0 127 32" fill="none" xmlns="http://www.w3.org/2000/svg">
<path d="M10.5577 5.64708C11.0292 5.64708 11.4814 5.83438 11.8148 6.16778L13.8017 8.15468C14.496 8.84895 14.496 9.97458 13.8017 10.6688L10.6688 13.8017C9.97458 14.496 9.97458 15.6216 10.6688 16.3159L14.5381 20.1852C14.8714 20.5186 15.0587 20.9707 15.0587 21.4422L15.0588 23.7342C15.0588 24.2057 14.8715 24.6579 14.5381 24.9913L8.05005 31.4793C7.71665 31.8127 7.26447 32 6.79298 32L4.50107 32C4.02957 32 3.57738 31.8127 3.24399 31.4793L1.25706 29.4924C0.562793 28.7981 0.562793 27.6725 1.25706 26.9782L4.38997 23.8453C5.08424 23.151 5.08424 22.0254 4.38998 21.3312L0.520698 17.4619C0.187296 17.1285 -5.57944e-06 16.6763 1.24655e-10 16.2048L2.71218e-05 13.9128C3.27012e-05 13.4414 0.187333 12.9892 0.520725 12.6558L7.00871 6.16778C7.34211 5.83438 7.79429 5.64708 8.26579 5.64708L10.5577 5.64708Z" fill="#504DFF"/>
<path d="M30.2222 0C31.2041 0 32 0.795938 32 1.77778V14.3224C32 14.7939 31.8127 15.2461 31.4793 15.5795L29.4924 17.5664C28.7981 18.2607 27.6725 18.2607 26.9782 17.5664L25.7277 16.3159C25.0334 15.6216 23.9078 15.6216 23.2135 16.3159L20.0806 19.4488C19.3863 20.1431 18.2607 20.1431 17.5665 19.4488L14.4336 16.3159C13.7393 15.6216 13.7393 14.496 14.4336 13.8017L18.4337 9.80161C19.2722 8.96311 18.6783 7.52941 17.4925 7.52941C17.1395 7.52941 16.8009 7.38918 16.5513 7.13956L14.4336 5.02178C13.7393 4.32752 13.7393 3.20189 14.4336 2.50763L16.4205 0.520699C16.7539 0.187301 17.2061 0 17.6776 0H30.2222Z" fill="#1FDA8C"/>
<path d="M123.546 26.6667V5.51111H126.689V26.6667H123.546Z" fill="white"/>
<path d="M107.935 26.6667V5.51111H115.445C116.533 5.51111 117.516 5.73274 118.392 6.176C119.279 6.61926 119.979 7.25896 120.492 8.09511C121.016 8.92118 121.278 9.91348 121.278 11.072C121.278 11.6361 121.188 12.1902 121.006 12.7342C120.825 13.2782 120.568 13.7567 120.236 14.1698C119.903 14.5828 119.5 14.875 119.027 15.0462C119.671 15.2074 120.205 15.4996 120.628 15.9227C121.062 16.3357 121.404 16.8193 121.656 17.3733C121.908 17.9274 122.084 18.5016 122.185 19.096C122.296 19.6904 122.351 20.2545 122.351 20.7884C122.351 21.9167 122.079 22.9241 121.535 23.8107C120.991 24.6972 120.261 25.3973 119.344 25.9111C118.437 26.4148 117.435 26.6667 116.337 26.6667H107.935ZM111.078 23.9467H116.035C116.679 23.9467 117.264 23.7855 117.788 23.4631C118.322 23.1407 118.745 22.6975 119.057 22.1333C119.369 21.5591 119.525 20.9144 119.525 20.1991C119.525 19.5745 119.369 18.9852 119.057 18.4311C118.745 17.867 118.322 17.4136 117.788 17.0711C117.264 16.7286 116.679 16.5573 116.035 16.5573H111.078V23.9467ZM111.078 13.8827H115.113C115.939 13.8827 116.649 13.6308 117.244 13.1271C117.838 12.6234 118.135 11.9333 118.135 11.0569C118.135 10.12 117.838 9.41985 117.244 8.95644C116.649 8.48296 115.939 8.24622 115.113 8.24622H111.078V13.8827Z" fill="white"/>
<path d="M99.6854 27.0596C98.2952 27.0596 97.0259 26.7019 95.8774 25.9867C94.739 25.2714 93.8273 24.3144 93.1423 23.1156C92.4673 21.9067 92.1299 20.5719 92.1299 19.1111C92.1299 18.003 92.3263 16.9704 92.7192 16.0133C93.1121 15.0462 93.6511 14.2 94.3361 13.4747C95.0312 12.7393 95.8371 12.165 96.7539 11.752C97.6706 11.339 98.6478 11.1324 99.6854 11.1324C100.844 11.1324 101.907 11.3742 102.874 11.8578C103.841 12.3313 104.667 12.9911 105.352 13.8373C106.037 14.6735 106.541 15.6406 106.863 16.7387C107.186 17.8267 107.281 18.9852 107.15 20.2142H95.4996C95.6306 20.9093 95.8825 21.539 96.2552 22.1031C96.638 22.6572 97.1216 23.0954 97.7059 23.4178C98.3002 23.7401 98.9601 23.9064 99.6854 23.9164C100.451 23.9164 101.146 23.725 101.771 23.3422C102.405 22.9594 102.924 22.4305 103.327 21.7556L106.516 22.496C105.911 23.8358 105 24.9339 103.781 25.7902C102.562 26.6364 101.197 27.0596 99.6854 27.0596ZM95.3939 17.8116H103.977C103.876 17.0862 103.619 16.4314 103.206 15.8471C102.803 15.2527 102.295 14.7843 101.68 14.4418C101.076 14.0892 100.411 13.9129 99.6854 13.9129C98.9702 13.9129 98.3053 14.0841 97.6908 14.4267C97.0863 14.7692 96.5826 15.2376 96.1796 15.832C95.7868 16.4163 95.5248 17.0761 95.3939 17.8116Z" fill="white"/>
<path d="M88.2978 26.6667V4H91.4409V26.6667H88.2978Z" fill="white"/>
<path d="M83.8346 11.5556H86.9777V26.6667H83.8195L83.6986 24.4756C83.2553 25.2513 82.6559 25.8759 81.9004 26.3493C81.1448 26.8228 80.2532 27.0596 79.2257 27.0596C78.1175 27.0596 77.0749 26.853 76.0977 26.44C75.1205 26.0169 74.2592 25.4326 73.5137 24.6871C72.7783 23.9416 72.2041 23.0853 71.791 22.1182C71.378 21.141 71.1715 20.0933 71.1715 18.9751C71.1715 17.8972 71.3729 16.8847 71.7759 15.9378C72.1789 14.9807 72.738 14.1446 73.4532 13.4293C74.1685 12.7141 74.9946 12.155 75.9315 11.752C76.8784 11.339 77.8909 11.1324 78.9688 11.1324C80.0669 11.1324 81.034 11.3843 81.8701 11.888C82.7163 12.3816 83.4165 13.0163 83.9706 13.792L83.8346 11.5556ZM79.1501 24.0222C80.0366 24.0222 80.8124 23.8056 81.4772 23.3724C82.1421 22.9292 82.6559 22.3348 83.0186 21.5893C83.3913 20.8439 83.5777 20.0178 83.5777 19.1111C83.5777 18.1944 83.3913 17.3633 83.0186 16.6178C82.6458 15.8723 82.127 15.283 81.4621 14.8498C80.8073 14.4065 80.0366 14.1849 79.1501 14.1849C78.2737 14.1849 77.4728 14.4065 76.7475 14.8498C76.0221 15.293 75.4479 15.8874 75.0248 16.6329C74.6017 17.3784 74.3901 18.2044 74.3901 19.1111C74.3901 20.0279 74.6067 20.859 75.0399 21.6044C75.4832 22.3399 76.0624 22.9292 76.7777 23.3724C77.503 23.8056 78.2938 24.0222 79.1501 24.0222Z" fill="white"/>
<path d="M68.4342 22.3751L71.2449 23.9013C70.5599 24.8584 69.6884 25.624 68.6307 26.1982C67.583 26.7724 66.4446 27.0596 65.2156 27.0596C63.8253 27.0596 62.556 26.7019 61.4076 25.9867C60.2692 25.2714 59.3575 24.3144 58.6724 23.1156C57.9975 21.9067 57.66 20.5719 57.66 19.1111C57.66 18.003 57.8565 16.9704 58.2493 16.0133C58.6422 15.0462 59.1812 14.2 59.8662 13.4747C60.5613 12.7393 61.3673 12.165 62.284 11.752C63.2007 11.339 64.1779 11.1324 65.2156 11.1324C66.4446 11.1324 67.583 11.4196 68.6307 11.9938C69.6884 12.568 70.5599 13.3387 71.2449 14.3058L68.4342 15.832C68.0111 15.3283 67.5175 14.9455 66.9533 14.6836C66.3892 14.4116 65.8099 14.2756 65.2156 14.2756C64.3895 14.2756 63.639 14.5022 62.964 14.9556C62.2991 15.3988 61.7702 15.9881 61.3773 16.7236C60.9945 17.4489 60.8031 18.2447 60.8031 19.1111C60.8031 19.9674 60.9996 20.7633 61.3924 21.4987C61.7853 22.224 62.3142 22.8083 62.9791 23.2516C63.6541 23.6948 64.3996 23.9164 65.2156 23.9164C65.8402 23.9164 66.4345 23.7754 66.9987 23.4933C67.5628 23.2113 68.0413 22.8385 68.4342 22.3751Z" fill="white"/>
<path d="M49.2901 27.0596C48.1316 27.0596 47.0184 26.8782 45.9505 26.5156C44.8827 26.1529 43.9508 25.6341 43.155 24.9591C42.3591 24.2741 41.79 23.4631 41.4474 22.5262L44.3941 21.4231C44.5654 21.9067 44.8928 22.3399 45.3763 22.7227C45.87 23.0954 46.4542 23.3876 47.1292 23.5991C47.8142 23.8107 48.5345 23.9164 49.2901 23.9164C50.096 23.9164 50.8516 23.7855 51.5568 23.5236C52.272 23.2616 52.8463 22.899 53.2794 22.4356C53.7227 21.9721 53.9443 21.4281 53.9443 20.8036C53.9443 20.1588 53.7126 19.6299 53.2492 19.2169C52.7959 18.8039 52.2116 18.4764 51.4963 18.2347C50.7911 17.9929 50.0557 17.8116 49.2901 17.6907C47.8092 17.4489 46.4794 17.0963 45.3008 16.6329C44.1322 16.1695 43.2054 15.5197 42.5203 14.6836C41.8454 13.8474 41.5079 12.7594 41.5079 11.4196C41.5079 10.1603 41.8655 9.06222 42.5808 8.12533C43.3061 7.18844 44.2581 6.46311 45.4368 5.94933C46.6255 5.42548 47.91 5.16355 49.2901 5.16355C50.4285 5.16355 51.5265 5.34489 52.5843 5.70755C53.6522 6.06015 54.5891 6.57896 55.395 7.264C56.211 7.93896 56.7953 8.76 57.1479 9.72711L54.171 10.8C53.9997 10.3064 53.6723 9.87822 53.1888 9.51555C52.7052 9.14281 52.1209 8.85067 51.4359 8.63911C50.7609 8.42756 50.0457 8.32178 49.2901 8.32178C48.4842 8.3117 47.7286 8.44267 47.0234 8.71467C46.3283 8.97659 45.7591 9.33926 45.3159 9.80267C44.8726 10.2661 44.651 10.805 44.651 11.4196C44.651 12.1751 44.8575 12.7493 45.2705 13.1422C45.6836 13.5351 46.2377 13.8273 46.9328 14.0187C47.638 14.2 48.4237 14.3662 49.2901 14.5173C50.6803 14.739 51.9648 15.1067 53.1434 15.6204C54.3322 16.1342 55.2842 16.8193 55.9994 17.6756C56.7248 18.5218 57.0874 19.5644 57.0874 20.8036C57.0874 22.0527 56.7248 23.1508 55.9994 24.0978C55.2842 25.0347 54.3322 25.765 53.1434 26.2889C51.9648 26.8027 50.6803 27.0596 49.2901 27.0596Z" fill="white"/>
</svg>
