<svg width="26" height="26" viewBox="0 0 26 26" fill="none" xmlns="http://www.w3.org/2000/svg">
<path d="M22.2072 7.88456L12.9983 13.0001M12.9983 13.0001L3.78942 7.88456M12.9983 13.0001V23.2912M22.7483 17.3957V8.60281C22.7483 8.23231 22.7483 8.04543 22.693 7.87968C22.6459 7.73343 22.5663 7.60018 22.4623 7.48643C22.3437 7.35806 22.1812 7.26706 21.8562 7.08831L13.84 2.63418C13.5329 2.46356 13.3785 2.37743 13.216 2.34493C13.073 2.31406 12.9235 2.31406 12.7805 2.34493C12.618 2.37743 12.4637 2.46356 12.1565 2.63418L4.14042 7.08831C3.81542 7.26706 3.65292 7.35806 3.53429 7.48643C3.43029 7.60018 3.35067 7.73343 3.30354 7.87968C3.24829 8.04543 3.24829 8.23231 3.24829 8.60281V17.3957C3.24829 17.7678 3.24829 17.9531 3.30354 18.1188C3.35067 18.2651 3.43029 18.3999 3.53429 18.5137C3.65292 18.6404 3.81542 18.7314 4.14042 18.9118L12.1565 23.3659C12.4637 23.5366 12.618 23.6211 12.7805 23.6552C12.9235 23.6844 13.073 23.6844 13.216 23.6552C13.3785 23.6211 13.5329 23.5366 13.84 23.3659L21.8562 18.9118C22.1812 18.7314 22.3437 18.6404 22.4623 18.5137C22.5663 18.3999 22.6459 18.2651 22.693 18.1188C22.7483 17.9531 22.7483 17.7678 22.7483 17.3957Z" stroke="#1FDA8C" stroke-width="1.8525" stroke-linecap="round" stroke-linejoin="round" stroke-dasharray="96.93 96.93"/>
</svg>
