<svg width="26" height="26" viewBox="0 0 26 26" fill="none" xmlns="http://www.w3.org/2000/svg">
<path d="M4.67667 21.3216C3.24829 19.8949 3.24829 17.5955 3.24829 13C3.24829 8.4045 3.24829 6.10513 4.67667 4.67838C6.10342 3.25 8.40279 3.25 12.9983 3.25C17.5938 3.25 19.8932 3.25 21.3199 4.67838C22.7483 6.10513 22.7483 8.4045 22.7483 13C22.7483 17.5955 22.7483 19.8949 21.3199 21.3216C19.8932 22.75 17.5938 22.75 12.9983 22.75C8.40279 22.75 6.10342 22.75 4.67667 21.3216Z" stroke="#1FDA8C" stroke-width="1.625" stroke-linecap="round" stroke-linejoin="round"/>
<path d="M6.49829 12.9999H9.20717L11.3733 8.66602L14.6233 17.3321L16.7894 12.9999H19.4983" stroke="#1FDA8C" stroke-width="1.625" stroke-linecap="round" stroke-linejoin="round" stroke-dasharray="24.36 24.36"/>
</svg>
