<svg width="24" height="24" viewBox="0 0 24 24" fill="none" xmlns="http://www.w3.org/2000/svg">
<g clip-path="url(#clip0_471_1392)">
<path d="M11.9998 20.899L16.9498 15.95C19.6828 13.216 19.6828 8.78401 16.9498 6.05001C14.2158 3.31701 9.78376 3.31701 7.04976 6.05001C4.31676 8.78401 4.31676 13.216 7.04976 15.95L11.9998 20.899ZM11.9998 23.728L5.63576 17.364C2.12076 13.849 2.12076 8.15101 5.63576 4.63601C9.15076 1.12101 14.8488 1.12101 18.3638 4.63601C21.8788 8.15101 21.8788 13.849 18.3638 17.364L11.9998 23.728ZM11.9998 13C13.1048 13 13.9998 12.105 13.9998 11C13.9998 9.89501 13.1048 9.00001 11.9998 9.00001C10.8948 9.00001 9.99976 9.89501 9.99976 11C9.99976 12.105 10.8948 13 11.9998 13ZM11.9998 15C9.79076 15 7.99976 13.209 7.99976 11C7.99976 8.79101 9.79076 7.00001 11.9998 7.00001C14.2088 7.00001 15.9998 8.79101 15.9998 11C15.9998 13.209 14.2088 15 11.9998 15Z" fill="#1FDA8C"/>
</g>
<defs>
<clipPath id="clip0_471_1392">
<rect width="24" height="24" fill="white"/>
</clipPath>
</defs>
</svg>
