<svg width="24" height="24" viewBox="0 0 24 24" fill="none" xmlns="http://www.w3.org/2000/svg">
<mask id="mask0_471_1376" style="mask-type:alpha" maskUnits="userSpaceOnUse" x="0" y="0" width="24" height="24">
<g clip-path="url(#clip0_471_1376)">
<g clip-path="url(#clip1_471_1376)">
<path d="M15.0498 5C17.0478 5.39 18.6098 6.952 18.9998 8.95M15.0498 1C19.2298 1.464 22.5308 4.761 22.9998 8.94M21.9998 16.92V19.92C22.0018 20.483 21.7668 21.021 21.3518 21.402C20.9368 21.783 20.3808 21.971 19.8198 21.92C16.7428 21.586 13.7868 20.534 11.1898 18.85C8.77381 17.315 6.72481 15.266 5.18981 12.85C3.49981 10.241 2.44781 7.271 2.11981 4.18C2.06981 3.621 2.25581 3.066 2.63481 2.652C3.01281 2.237 3.54881 2.001 4.10981 2H7.10981C8.11381 1.99 8.96981 2.726 9.10981 3.72C9.23681 4.68 9.47181 5.623 9.80981 6.53C10.0848 7.261 9.90881 8.085 9.35981 8.64L8.08981 9.91C9.51381 12.414 11.5868 14.486 14.0898 15.91L15.3598 14.64C15.9148 14.091 16.7388 13.915 17.4698 14.19C18.3768 14.529 19.3198 14.763 20.2798 14.89C21.2858 15.032 22.0248 15.905 21.9998 16.92Z" stroke="black" stroke-width="2" stroke-linecap="round" stroke-linejoin="round"/>
</g>
</g>
</mask>
<g mask="url(#mask0_471_1376)">
<rect width="24" height="24" fill="#1FDA8C"/>
</g>
<defs>
<clipPath id="clip0_471_1376">
<rect width="24" height="24" fill="white"/>
</clipPath>
<clipPath id="clip1_471_1376">
<rect width="24" height="24" fill="white"/>
</clipPath>
</defs>
</svg>
